<?xml version="1.0" standalone="no"?>
<!DOCTYPE svg PUBLIC "-//W3C//DTD SVG 1.1//EN" "http://www.w3.org/Graphics/SVG/1.1/DTD/svg11.dtd" >
<svg xmlns="http://www.w3.org/2000/svg">
<metadata>Generated by IcoMoon</metadata>
<defs>
<font id="icomoon" horiz-adv-x="1024">
<font-face units-per-em="1024" ascent="896" descent="-128" />
<missing-glyph horiz-adv-x="1024" />
<glyph unicode="&#x20;" horiz-adv-x="400" d="" />
<glyph unicode="&#xe227;" glyph-name="attach_money" d="M504 408.667c96-26 200-64 200-186 0-88-66-136-150-152v-92h-128v92c-82 18-150 70-156 164h94c4-50 38-90 126-90 94 0 116 46 116 76 0 40-22 78-128 104-120 28-200 78-200 176 0 82 66 136 148 154v92h128v-94c90-22 136-88 138-162h-94c-2 54-32 90-108 90-72 0-114-34-114-80 0-40 32-66 128-92z" />
<glyph unicode="&#xe838;" glyph-name="star2" d="M512 138.667l-264-160 70 300-232 202 306 26 120 282 120-282 306-26-232-202 70-300z" />
<glyph unicode="&#xe8f4;" glyph-name="visibility" d="M512 490.667c70 0 128-58 128-128s-58-128-128-128-128 58-128 128 58 128 128 128zM512 148.667c118 0 214 96 214 214s-96 214-214 214-214-96-214-214 96-214 214-214zM512 682.667c214 0 396-132 470-320-74-188-256-320-470-320s-396 132-470 320c74 188 256 320 470 320z" />
<glyph unicode="&#xe900;" glyph-name="viber" d="M486.315 895.915c-82.133-1.109-258.859-14.592-357.717-105.173-73.387-72.96-99.029-180.523-102.016-313.728-2.56-132.693-5.547-381.867 234.667-449.749v-103.253c0 0-1.621-41.387 25.685-49.92 33.707-10.667 52.907 21.291 84.907 55.424l59.733 67.413c164.267-13.653 290.133 17.877 304.64 22.571 33.28 10.667 221.056 34.603 251.776 283.819 31.573 257.323-15.36 419.456-99.84 492.843l-0.427 0.085c-25.6 23.467-128 98.133-357.12 98.987 0 0-16.896 1.067-44.288 0.683zM489.173 823.509c23.253 0.128 37.547-0.853 37.547-0.853 193.707-0.427 286.336-58.88 308.096-78.507 71.253-60.971 107.861-207.189 81.067-422.059-25.6-208.213-177.92-221.44-206.080-230.4-11.947-3.84-122.88-31.147-262.485-22.187 0 0-104.064-125.483-136.491-157.909-5.12-5.547-11.093-7.253-14.933-6.4-5.547 1.28-7.253 8.107-6.827 17.493l0.853 171.477c-203.563 56.32-191.616 268.885-189.483 379.819 2.56 110.933 23.467 201.899 85.333 263.339 83.499 75.52 233.6 85.76 303.403 86.187zM504.533 712.576c-0.013 0-0.028 0-0.043 0-7.046 0-12.757-5.712-12.757-12.757 0 0 0 0 0 0v0c0-7.069 5.731-12.8 12.8-12.8v0c1.364 0.028 2.971 0.044 4.583 0.044 65.1 0 124.152-25.892 167.421-67.939l-0.057 0.055c46.507-45.227 69.163-105.813 70.016-185.173 0-7.069 5.731-12.8 12.8-12.8v0 0.384c7.069 0 12.8 5.731 12.8 12.8v0c0.157 3.48 0.247 7.56 0.247 11.662 0 74.43-29.543 141.961-77.544 191.504l0.070-0.072c-50.773 49.493-114.859 75.093-190.336 75.093zM335.829 683.136c-1.727 0.259-3.721 0.408-5.748 0.408-7.549 0-14.619-2.053-20.681-5.631l0.19 0.104h-0.512c-17.493-10.24-33.621-23.040-48.981-40.107-11.52-13.653-17.963-27.264-19.669-40.491-0.279-2.039-0.438-4.396-0.438-6.791 0-5.823 0.941-11.426 2.678-16.666l-0.107 0.374 0.853-0.427c14.645-42.578 31.945-79.22 52.671-113.56l-1.471 2.627c28.652-51.472 61.491-95.882 99.246-135.571l-0.26 0.275 1.28-1.707 1.707-1.28 2.56-2.56c39.559-37.583 84.086-70.554 132.337-97.686l3.343-1.728c56.32-30.72 90.539-45.227 111.019-51.2v-0.427c5.973-1.707 11.435-2.56 16.981-2.56 18.235 1.369 34.519 8.773 47.083 20.196l-0.064-0.057c16.64 14.933 29.867 31.488 39.68 48.981v0.427c9.813 18.347 6.4 35.883-7.68 47.829-27.026 23.744-57.036 45.466-88.997 64.222l-2.736 1.484c-21.76 11.947-43.947 4.693-52.907-7.253l-19.2-24.277c-9.813-11.947-27.733-10.24-27.733-10.24l-0.512-0.427c-133.12 34.133-168.533 168.917-168.533 168.917s-1.707 18.347 10.667 27.733l23.893 19.2c11.52 9.387 19.627 31.573 7.253 53.333-20.207 34.7-41.93 64.712-66.261 92.376l0.555-0.643c-5.305 6.541-12.762 11.155-21.28 12.765l-0.224 0.035zM526.677 645.163c-7.051-0.024-12.757-5.746-12.757-12.8 0-7.069 5.731-12.8 12.8-12.8 0.015 0 0.030 0 0.045 0h-0.002c44.424-0.795 84.345-19.431 113.026-49.025l0.041-0.042c23.999-26.399 38.693-61.631 38.693-100.296 0-3.292-0.107-6.56-0.316-9.799l0.023 0.441c0.024-7.051 5.746-12.757 12.8-12.757 0 0 0 0 0 0v0l0.427-0.512c0 0 0 0 0 0 7.069 0 12.8 5.731 12.8 12.8 0 0.015 0 0.030 0 0.045v-0.002c1.28 50.773-14.507 93.44-45.653 127.573s-74.667 53.333-130.133 57.173c-0.268 0.020-0.581 0.031-0.896 0.031s-0.628-0.011-0.937-0.034l0.041 0.002zM547.584 576.085c-0.114 0.004-0.249 0.006-0.384 0.006-7.202 0-13.040-5.838-13.040-13.040 0-7.067 5.621-12.821 12.637-13.034h0.020c42.24-2.133 62.72-23.467 65.28-67.413 0.237-6.883 5.874-12.373 12.793-12.373 0.002 0 0.005 0 0.007 0h0.426c6.896 0.221 12.402 5.864 12.402 12.794 0 0.302-0.010 0.602-0.031 0.9l0.002-0.040c-2.987 57.173-34.133 89.216-89.6 92.203-0.076 0.002-0.166 0.003-0.256 0.003s-0.18-0.001-0.269-0.003h0.013z" />
<glyph unicode="&#xe950;" glyph-name="alarm" d="M512 768c-247.424 0-448-200.576-448-448s200.576-448 448-448 448 200.576 448 448-200.576 448-448 448zM512-40c-198.824 0-360 161.178-360 360 0 198.824 161.176 360 360 360 198.822 0 360-161.176 360-360 0-198.822-161.178-360-360-360zM934.784 608.826c16.042 28.052 25.216 60.542 25.216 95.174 0 106.040-85.96 192-192 192-61.818 0-116.802-29.222-151.92-74.596 131.884-27.236 245.206-105.198 318.704-212.578v0zM407.92 821.404c-35.116 45.374-90.102 74.596-151.92 74.596-106.040 0-192-85.96-192-192 0-34.632 9.174-67.122 25.216-95.174 73.5 107.38 186.822 185.342 318.704 212.578zM512 320v256h-64v-320h256v64z" />
<glyph unicode="&#xf003;" glyph-name="envelope-o" d="M950.857 27.428v438.857c-12-13.714-25.143-26.286-39.429-37.714-81.714-62.857-164-126.857-243.429-193.143-42.857-36-96-80-155.429-80h-1.143c-59.429 0-112.571 44-155.429 80-79.429 66.286-161.714 130.286-243.429 193.143-14.286 11.429-27.429 24-39.429 37.714v-438.857c0-9.714 8.571-18.286 18.286-18.286h841.143c9.714 0 18.286 8.571 18.286 18.286zM950.857 628c0 14.286 3.429 39.429-18.286 39.429h-841.143c-9.714 0-18.286-8.571-18.286-18.286 0-65.143 32.571-121.714 84-162.286 76.571-60 153.143-120.571 229.143-181.143 30.286-24.571 85.143-77.143 125.143-77.143h1.143c40 0 94.857 52.571 125.143 77.143 76 60.571 152.571 121.143 229.143 181.143 37.143 29.143 84 92.571 84 141.143zM1024 649.143v-621.714c0-50.286-41.143-91.429-91.429-91.429h-841.143c-50.286 0-91.429 41.143-91.429 91.429v621.714c0 50.286 41.143 91.429 91.429 91.429h841.143c50.286 0 91.429-41.143 91.429-91.429z" />
<glyph unicode="&#xf004;" glyph-name="heart" d="M512-64c-9.143 0-18.286 3.429-25.143 10.286l-356.571 344c-4.571 4-130.286 118.857-130.286 256 0 167.429 102.286 267.429 273.143 267.429 100 0 193.714-78.857 238.857-123.429 45.143 44.571 138.857 123.429 238.857 123.429 170.857 0 273.143-100 273.143-267.429 0-137.143-125.714-252-130.857-257.143l-356-342.857c-6.857-6.857-16-10.286-25.143-10.286z" />
<glyph unicode="&#xf007;" glyph-name="user" horiz-adv-x="731" d="M731.429 78.285c0-83.429-54.857-151.429-121.714-151.429h-488c-66.857 0-121.714 68-121.714 151.429 0 150.286 37.143 324 186.857 324 46.286-45.143 109.143-73.143 178.857-73.143s132.571 28 178.857 73.143c149.714 0 186.857-173.714 186.857-324zM585.143 585.143c0-121.143-98.286-219.429-219.429-219.429s-219.429 98.286-219.429 219.429 98.286 219.429 219.429 219.429 219.429-98.286 219.429-219.429z" />
<glyph unicode="&#xf00e;" glyph-name="search-plus" horiz-adv-x="951" d="M585.143 420.571v-36.571c0-9.714-8.571-18.286-18.286-18.286h-128v-128c0-9.714-8.571-18.286-18.286-18.286h-36.571c-9.714 0-18.286 8.571-18.286 18.286v128h-128c-9.714 0-18.286 8.571-18.286 18.286v36.571c0 9.714 8.571 18.286 18.286 18.286h128v128c0 9.714 8.571 18.286 18.286 18.286h36.571c9.714 0 18.286-8.571 18.286-18.286v-128h128c9.714 0 18.286-8.571 18.286-18.286zM658.286 402.285c0 141.143-114.857 256-256 256s-256-114.857-256-256 114.857-256 256-256 256 114.857 256 256zM950.857-73.143c0-40.571-32.571-73.143-73.143-73.143-19.429 0-38.286 8-51.429 21.714l-196 195.429c-66.857-46.286-146.857-70.857-228-70.857-222.286 0-402.286 180-402.286 402.286s180 402.286 402.286 402.286 402.286-180 402.286-402.286c0-81.143-24.571-161.143-70.857-228l196-196c13.143-13.143 21.143-32 21.143-51.429z" />
<glyph unicode="&#xf041;" glyph-name="map-marker" horiz-adv-x="585" d="M438.857 512c0 80.571-65.714 146.286-146.286 146.286s-146.286-65.714-146.286-146.286 65.714-146.286 146.286-146.286 146.286 65.714 146.286 146.286zM585.143 512c0-34.857-4-70.857-18.857-102.286l-208-442.286c-12-25.143-38.286-40.571-65.714-40.571s-53.714 15.429-65.143 40.571l-208.571 442.286c-14.857 31.429-18.857 67.429-18.857 102.286 0 161.714 130.857 292.571 292.571 292.571s292.571-130.857 292.571-292.571z" />
<glyph unicode="&#xf071;" glyph-name="exclamation-triangle, warning" d="M585.143 92v108.571c0 10.286-8 18.857-18.286 18.857h-109.714c-10.286 0-18.286-8.571-18.286-18.857v-108.571c0-10.286 8-18.857 18.286-18.857h109.714c10.286 0 18.286 8.571 18.286 18.857zM584 305.714l10.286 262.286c0 3.429-1.714 8-5.714 10.857-3.429 2.857-8.571 6.286-13.714 6.286h-125.714c-5.143 0-10.286-3.429-13.714-6.286-4-2.857-5.714-8.571-5.714-12l9.714-261.143c0-7.429 8.571-13.143 19.429-13.143h105.714c10.286 0 18.857 5.714 19.429 13.143zM576 839.428l438.857-804.571c12.571-22.286 12-49.714-1.143-72s-37.143-36-62.857-36h-877.714c-25.714 0-49.714 13.714-62.857 36s-13.714 49.714-1.143 72l438.857 804.571c12.571 23.429 37.143 38.286 64 38.286s51.429-14.857 64-38.286z" />
<glyph unicode="&#xf095;" glyph-name="phone" horiz-adv-x="805" d="M804.571 169.143c0-20.571-9.143-60.571-17.714-79.429-12-28-44-46.286-69.714-60.571-33.714-18.286-68-29.143-106.286-29.143-53.143 0-101.143 21.714-149.714 39.429-34.857 12.571-68.571 28-100 47.429-97.143 60-214.286 177.143-274.286 274.286-19.429 31.429-34.857 65.143-47.429 100-17.714 48.571-39.429 96.571-39.429 149.714 0 38.286 10.857 72.571 29.143 106.286 14.286 25.714 32.571 57.714 60.571 69.714 18.857 8.571 58.857 17.714 79.429 17.714 4 0 8 0 12-1.714 12-4 24.571-32 30.286-43.429 18.286-32.571 36-65.714 54.857-97.714 9.143-14.857 26.286-33.143 26.286-50.857 0-34.857-103.429-85.714-103.429-116.571 0-15.429 14.286-35.429 22.286-49.143 57.714-104 129.714-176 233.714-233.714 13.714-8 33.714-22.286 49.143-22.286 30.857 0 81.714 103.429 116.571 103.429 17.714 0 36-17.143 50.857-26.286 32-18.857 65.143-36.571 97.714-54.857 11.429-5.714 39.429-18.286 43.429-30.286 1.714-4 1.714-8 1.714-12z" />
<glyph unicode="&#xf098;" glyph-name="phone-square" horiz-adv-x="878" d="M731.429 196c0 2.857 0 6.286-1.143 9.143-3.429 10.286-86.857 52.571-102.857 61.714-10.857 6.286-24 18.857-37.143 18.857-25.143 0-62.286-74.857-84.571-74.857-11.429 0-25.714 10.286-36 16-75.429 42.286-127.429 94.286-169.714 169.714-5.714 10.286-16 24.571-16 36 0 22.286 74.857 59.429 74.857 84.571 0 13.143-12.571 26.286-18.857 37.143-9.143 16-51.429 99.429-61.714 102.857-2.857 1.143-6.286 1.143-9.143 1.143-14.857 0-44-6.857-57.714-12.571-37.714-17.143-65.143-89.143-65.143-128.571 0-38.286 15.429-73.143 28.571-108.571 45.714-125.143 181.714-261.143 306.857-306.857 35.429-13.143 70.286-28.571 108.571-28.571 39.429 0 111.429 27.429 128.571 65.143 5.714 13.714 12.571 42.857 12.571 57.714zM877.714 640v-548.571c0-90.857-73.714-164.571-164.571-164.571h-548.571c-90.857 0-164.571 73.714-164.571 164.571v548.571c0 90.857 73.714 164.571 164.571 164.571h548.571c90.857 0 164.571-73.714 164.571-164.571z" />
<glyph unicode="&#xf09b;" glyph-name="twitter" horiz-adv-x="951" d="M925.714 644.571c-25.143-36.571-56.571-69.143-92.571-95.429 0.571-8 0.571-16 0.571-24 0-244-185.714-525.143-525.143-525.143-104.571 0-201.714 30.286-283.429 82.857 14.857-1.714 29.143-2.286 44.571-2.286 86.286 0 165.714 29.143 229.143 78.857-81.143 1.714-149.143 54.857-172.571 128 11.429-1.714 22.857-2.857 34.857-2.857 16.571 0 33.143 2.286 48.571 6.286-84.571 17.143-148 91.429-148 181.143v2.286c24.571-13.714 53.143-22.286 83.429-23.429-49.714 33.143-82.286 89.714-82.286 153.714 0 34.286 9.143 65.714 25.143 93.143 90.857-112 227.429-185.143 380.571-193.143-2.857 13.714-4.571 28-4.571 42.286 0 101.714 82.286 184.571 184.571 184.571 53.143 0 101.143-22.286 134.857-58.286 41.714 8 81.714 23.429 117.143 44.571-13.714-42.857-42.857-78.857-81.143-101.714 37.143 4 73.143 14.286 106.286 28.571z" />
<glyph unicode="&#xf09c;" glyph-name="facebook, facebook-f" horiz-adv-x="602" d="M548 870.857v-150.857h-89.714c-70.286 0-83.429-33.714-83.429-82.286v-108h167.429l-22.286-169.143h-145.143v-433.714h-174.857v433.714h-145.714v169.143h145.714v124.571c0 144.571 88.571 223.429 217.714 223.429 61.714 0 114.857-4.571 130.286-6.857z" />
<glyph unicode="&#xf0c0;" glyph-name="group, users" horiz-adv-x="1097" d="M338.857 365.714c-59.429-1.714-113.143-27.429-151.429-73.143h-76.571c-57.143 0-110.857 27.429-110.857 90.857 0 46.286-1.714 201.714 70.857 201.714 12 0 71.429-48.571 148.571-48.571 26.286 0 51.429 4.571 76 13.143-1.714-12.571-2.857-25.143-2.857-37.714 0-52 16.571-103.429 46.286-146.286zM950.857 1.714c0-92.571-61.143-148-152.571-148h-499.429c-91.429 0-152.571 55.429-152.571 148 0 129.143 30.286 327.429 197.714 327.429 19.429 0 90.286-79.429 204.571-79.429s185.143 79.429 204.571 79.429c167.429 0 197.714-198.286 197.714-327.429zM365.714 731.428c0-80.571-65.714-146.286-146.286-146.286s-146.286 65.714-146.286 146.286 65.714 146.286 146.286 146.286 146.286-65.714 146.286-146.286zM768 512c0-121.143-98.286-219.429-219.429-219.429s-219.429 98.286-219.429 219.429 98.286 219.429 219.429 219.429 219.429-98.286 219.429-219.429zM1097.143 383.428c0-63.429-53.714-90.857-110.857-90.857h-76.571c-38.286 45.714-92 71.429-151.429 73.143 29.714 42.857 46.286 94.286 46.286 146.286 0 12.571-1.143 25.143-2.857 37.714 24.571-8.571 49.714-13.143 76-13.143 77.143 0 136.571 48.571 148.571 48.571 72.571 0 70.857-155.429 70.857-201.714zM1024 731.428c0-80.571-65.714-146.286-146.286-146.286s-146.286 65.714-146.286 146.286 65.714 146.286 146.286 146.286 146.286-65.714 146.286-146.286z" />
<glyph unicode="&#xf0c9;" glyph-name="bars, navicon, reorder" horiz-adv-x="878" d="M877.714 109.714v-73.143c0-20-16.571-36.571-36.571-36.571h-804.571c-20 0-36.571 16.571-36.571 36.571v73.143c0 20 16.571 36.571 36.571 36.571h804.571c20 0 36.571-16.571 36.571-36.571zM877.714 402.285v-73.143c0-20-16.571-36.571-36.571-36.571h-804.571c-20 0-36.571 16.571-36.571 36.571v73.143c0 20 16.571 36.571 36.571 36.571h804.571c20 0 36.571-16.571 36.571-36.571zM877.714 694.857v-73.143c0-20-16.571-36.571-36.571-36.571h-804.571c-20 0-36.571 16.571-36.571 36.571v73.143c0 20 16.571 36.571 36.571 36.571h804.571c20 0 36.571-16.571 36.571-36.571z" />
<glyph unicode="&#xf0ca;" glyph-name="bars1" horiz-adv-x="878" d="M877.714 118.857v-73.143c0-20-16.571-36.571-36.571-36.571h-804.571c-20 0-36.571 16.571-36.571 36.571v73.143c0 20 16.571 36.571 36.571 36.571h804.571c20 0 36.571-16.571 36.571-36.571zM877.714 411.428v-73.143c0-20-16.571-36.571-36.571-36.571h-804.571c-20 0-36.571 16.571-36.571 36.571v73.143c0 20 16.571 36.571 36.571 36.571h804.571c20 0 36.571-16.571 36.571-36.571zM877.714 704v-73.143c0-20-16.571-36.571-36.571-36.571h-804.571c-20 0-36.571 16.571-36.571 36.571v73.143c0 20 16.571 36.571 36.571 36.571h804.571c20 0 36.571-16.571 36.571-36.571z" />
<glyph unicode="&#xf0e0;" glyph-name="envelope" d="M1024 472v-453.714c0-50.286-41.143-91.429-91.429-91.429h-841.143c-50.286 0-91.429 41.143-91.429 91.429v453.714c17.143-18.857 36.571-35.429 57.714-49.714 94.857-64.571 190.857-129.143 284-197.143 48-35.429 107.429-78.857 169.714-78.857h1.143c62.286 0 121.714 43.429 169.714 78.857 93.143 67.429 189.143 132.571 284.571 197.143 20.571 14.286 40 30.857 57.143 49.714zM1024 640c0-64-47.429-121.714-97.714-156.571-89.143-61.714-178.857-123.429-267.429-185.714-37.143-25.714-100-78.286-146.286-78.286h-1.143c-46.286 0-109.143 52.571-146.286 78.286-88.571 62.286-178.286 124-266.857 185.714-40.571 27.429-98.286 92-98.286 144 0 56 30.286 104 91.429 104h841.143c49.714 0 91.429-41.143 91.429-91.429z" />
<glyph unicode="&#xf100;" glyph-name="uniF100" d="M991.682 693.234c17.85 0 32.318-14.469 32.32-32.316 0-17.85-14.471-32.318-32.318-32.318h-27.234v-91.189c0-9.428-7.643-17.074-17.074-17.074h-46.645c-9.428 0-17.074 7.645-17.074 17.074v91.189h-66.434c-2.043-19.303-16.512-156.105-18.646-176.293-4.414-41.699-56.145-56.887-82.924-26.234l-68.109 77.947v-182.635l173.932-70.668c20.143-8.188 34.492-26.367 37.771-47.861l34.43-225.706c5.139-33.688-18.004-65.162-51.691-70.303-33.688-5.137-65.162 18-70.303 51.691l-29.145 191.047-159.635 64.857h-141.709l-159.635-64.857-29.145-191.047c-5.139-33.688-36.613-56.828-70.303-51.691-33.688 5.139-56.832 36.613-51.691 70.303l34.428 225.704c3.281 21.494 17.629 39.676 37.771 47.861l172.564 70.109v181.568l-66.691-76.322c-27.514-31.5-78.635-14.344-82.924 26.234-2.137 20.221-16.596 156.955-18.643 176.293h-66.582v-91.189c0-9.428-7.645-17.074-17.074-17.074h-46.646c-9.428 0-17.072 7.645-17.072 17.074v91.189h-27.232c-17.85 0-32.318 14.471-32.318 32.318 0 17.85 14.469 32.318 32.318 32.316h27.23v91.189c0 9.43 7.643 17.074 17.072 17.074h46.646c9.43 0 17.074-7.645 17.074-17.074v-91.189h59.777c-2.488 26.146 16.781 48.988 42.227 51.682 25.977 2.748 49.43-16.203 52.18-42.199l1.002-9.479h81.877c23.889-51.574 75.766-86.137 134.521-86.137 57.959 0 110.279 33.795 134.521 86.137h82.178l1.002 9.479c2.727 25.803 25.969 44.961 52.18 42.197 25.479-2.693 44.711-25.562 42.225-51.678h59.623v91.189c0 9.43 7.645 17.074 17.074 17.074h46.646c9.43 0 17.072-7.645 17.072-17.074v-91.189h27.234zM308.522 570.34c20.965 23.99 30.23 34.594 50.906 58.26h-57.068c2.533-23.949 3.605-34.064 6.162-58.26zM715.624 570.34c2.553 24.164 1.375 13.020 6.158 58.26h-57.066c57.619-65.939 27.318-31.266 50.908-58.26zM405.358 755.298c0 71.044 35.523 106.566 106.568 106.566s106.568-35.522 106.568-106.566c0-71.046-35.523-106.568-106.568-106.568s-106.568 35.523-106.568 106.568z" />
<glyph unicode="&#xf101;" glyph-name="uniF101" d="M895.858 660.546c6.717-10.281 4.359-24.047-4.746-32.291l-36.402-32.957c8.080-7.715 12.494-19.045 10.854-30.959-2.721-19.75-20.953-33.48-40.59-30.76l-25.67 3.535c-43.705-54.811-74.121-119.076-88.795-187.893-9.516 39.658-13.227 80.332-11.162 120.803 12.385 26.129 27.018 51.164 43.754 74.834l-12.816 1.766c6.189 17.92 5.004 37.564-3.145 54.578l6.527 17.662 64.32-8.861c11.799 11.813 15.16 14.605 60.34 55.51 11.143 10.090 28.945 8.176 37.531-4.967zM704.128 690.674c12.854-4.75 19.422-19.021 14.672-31.873l-11.918-32.244c-13.016 10.303-29.57 16.121-47.182 15.498l12.551 33.949c4.752 12.852 19.018 19.432 31.877 14.67zM739.58-45.441l48.051-48.783c7.691-7.811 7.596-20.379-0.213-28.068-7.814-7.697-20.383-7.596-28.072 0.211l-69.209 70.264s-385.9-59.646-409.246-59.646c-26.18 0-50.842 6.461-72.531 17.818l-28.539-28.539c-8.438-8.436-22.582-7.688-30.008 2.238-5.959 7.965-4.658 19.24 2.375 26.273l23.143 23.146c-31.361 28.635-51.043 69.852-51.043 115.668 0 83.037 64.641 150.939 146.344 156.229l25.705 80.744-10.156 102.27c8.094-2.918 5.771-2.125 85.467-16.99l8.5-85.602c0.563-5.65-0.039-11.357-1.76-16.768l-24.885-78.156 50.424-6.701c5.004-16.805 15.666-31.506 30.010-41.562-21.445 1.041-32.121-13.412-32.791-27.227-0.768-15.877 11.482-29.371 27.357-30.139 10.416-0.502 89.418-4.322 101.414-4.902 16.619-0.84 30.99 12.82 30.139 30.266-0.729 14.895-13.217 26.545-28.111 27.264l-15.354 0.742c12.133 6.82 21.217 15.865 28.043 26.855l91.859-12.211 7.592 69.971 29.287-74.873 31.477-4.184-48.891 124.984c-28.613 73.141-39.467 151.186-32.566 228.108 50.879 5.711 47.893 5.338 50.455 5.756-8.17-72.609 1.271-146.627 28.324-215.782l61.645-157.582c14.301-8.467 26.148-20.625 34.232-35.174 7.461-13.428 11.725-28.883 11.725-45.336 0-43.594-29.832-80.219-70.191-90.582zM374.362 40.266c2.813 55.537-42.805 101.156-98.34 98.34-47.551-2.412-86.188-41.047-88.598-88.6-2.814-55.533 42.805-101.152 98.338-98.338 47.551 2.41 86.188 41.049 88.6 88.598zM552.69 886.948c35.17-18.287 51.543-60.629 37.826-97.818-16.631-45.1-68.793-65.271-111.439-43.096-35.168 18.287-51.543 60.629-37.83 97.818 16.631 45.1 68.799 65.273 111.443 43.096zM658.16 605.878c21.119 2.371 39.994-14.018 40.033-35.875 0.037-18.486-14.572-33.75-32.939-35.812l-142.049-15.941c-12.182-1.361-23.973 3.547-31.602 12.639l-87.488 104.232c5.531-11.756 48.852-103.885 54.674-116.266l-17.143-41.432 68.574-12.789c22.201-4.143 37.469-24.682 35.039-47.135l-23.781-219.774c-2.4-22.154-21.139-38.57-42.912-38.57-25.719 0-45.791 22.256-43.020 47.869l19.475 179.98c-163.020 30.408-154.764 28.016-163.244 32.688-25.416 9.654-36.23 40.812-25.357 69.438 10.051 26.461 71.893 189.271 79.766 210.004 10.959 28.842 40.9 44.248 65.408 33.41 80.467-35.59 213.836-94.105 213.836-94.105l-90.691-10.176c-35.549 25.049-59.291 41.775-75.453 53.164l75.078-89.445z" />
<glyph unicode="&#xf102;" glyph-name="uniF102" d="M320.324 605.064c0 52.414 26.207 78.621 78.621 78.621 52.415 0 78.623-26.207 78.623-78.621 0-52.415-26.208-78.623-78.623-78.623-52.414 0-78.621 26.208-78.621 78.623zM990.858 152.809c9.136 0 16.939-3.227 23.408-9.68s9.714-14.25 9.737-23.39c0.021-9.151-3.198-16.97-9.654-23.456s-14.261-9.74-23.412-9.761l-957.794-2.207c-9.135 0-16.937 3.227-23.406 9.68s-9.713 14.249-9.735 23.387c-0.021 9.151 3.196 16.969 9.653 23.456s14.261 9.741 23.412 9.763l367.218 0.846-54.684 237.488 33.518-7.271-159.768 92.727c-9.16 5.318-14.636 13.204-16.427 23.657-1.791 10.455 0.756 19.718 7.64 27.791l82.383 96.521c-2.248-13.808-1.785-27.599 1.387-41.373 3.348-14.553 9.521-27.883 18.518-39.988l-24.143-28.285 114.145-66.748-40.984 38.193 127.715 30.533 60.395 90.59-43.707 3.238c-0.239 6.973-1.141 13.855-2.705 20.645-4.358 18.92-13.244 35.479-26.658 49.678l136.145-10.084c12.941-0.961 22.271-7.283 27.989-18.964 5.723-11.686 4.98-22.944-2.228-33.772l-102.248-153.367 46.025-177.605 102.123 75.883c20.465 15.202 39.907 13.996 58.326-3.617l196.098-187.465c5.025-4.807 8.751-10.518 11.178-17.133l40.543 0.094zM555.198 151.801l271.036 0.625-118.168 112.967z" />
<glyph unicode="&#xf103;" glyph-name="uniF103" d="M431.506 513.012c0 53.628 26.814 80.441 80.441 80.441 53.629 0 80.443-26.814 80.443-80.441s-26.814-80.441-80.443-80.441c-53.628 0-80.441 26.814-80.441 80.441zM403.938-1.57h97.439v-37.125c0-13.453-4.757-24.937-14.271-34.45s-20.997-14.27-34.45-14.27-24.937 4.757-34.45 14.27-14.271 20.997-14.271 34.45h0.002v37.125zM522.41-1.57h97.438v-37.125c0-13.453-4.757-24.937-14.27-34.45s-20.997-14.27-34.45-14.27c-13.452 0-24.935 4.757-34.449 14.271s-14.27 20.997-14.27 34.45h0.002v37.125zM427.738 811.858c0 56.095 28.048 84.143 84.143 84.143s84.141-28.048 84.141-84.143c0-56.094-28.047-84.141-84.141-84.141s-84.143 28.047-84.143 84.141zM559.382 73.314l98.812-43.463h-292.32l98.814 43.463h94.693zM874.098 466.16c6.737 0 12.487-2.382 17.253-7.147s7.148-10.516 7.148-17.253c0-6.737-2.382-12.487-7.145-17.251s-10.513-7.146-17.247-7.147h-20.557v-68.838c0-8.592-4.297-12.889-12.891-12.889h-35.211c-8.592 0-12.889 4.296-12.889 12.889v68.838h-50.15c-5.318-50.038-10.010-94.397-14.074-133.078-1.65-15.59-9.953-25.714-24.911-30.372s-27.519-1.135-37.685 10.569c-9.454 10.942-26.592 30.556-51.416 58.842v-137.867c26.594-10.804 70.359-28.586 131.295-53.344 16.355-6.642 25.859-18.685 28.514-36.129l25.992-170.379c1.938-12.717-0.902-24.256-8.522-34.617s-17.786-16.513-30.499-18.453c-12.677-1.934-24.206 0.906-34.587 8.519s-16.542 17.781-18.484 30.505l-22.002 144.213c-1.302 0.506-8.093 3.253-20.375 8.241-12.284 4.988-28.47 11.589-48.556 19.802-20.089 8.213-37.28 15.185-51.573 20.916h-106.971c-8.963-3.791-30.459-12.645-64.488-26.561s-52.701-21.382-56.016-22.398l-22.002-144.213c-1.941-12.717-8.093-22.885-18.456-30.504s-21.901-10.459-34.614-8.519c-12.715 1.94-22.882 8.092-30.501 18.454s-10.46 21.901-8.52 34.616l25.992 170.379c2.665 17.445 12.17 29.488 28.514 36.129 0.925 0.29 21.546 8.631 61.861 25.022s63.116 25.692 68.4 27.902v137.061c-18.851-21.503-35.632-40.708-50.344-57.613-10.392-11.811-23.015-15.311-37.87-10.502s-23.096 14.911-24.724 30.304c-4.921 46.446-9.613 90.806-14.076 133.078h-50.262v-68.838c0-8.591-4.297-12.887-12.891-12.887h-35.211c-8.592 0-12.889 4.296-12.889 12.887v68.838h-20.555c-6.737 0-12.488 2.382-17.251 7.145s-7.145 10.514-7.145 17.251 2.382 12.488 7.145 17.251c4.763 4.764 10.514 7.145 17.251 7.145h20.555v68.838c0 8.592 4.296 12.889 12.889 12.889h35.209c8.594 0 12.891-4.296 12.891-12.889v-68.838h45.121c-1.243 13.078 3.349 23.649 13.777 31.715h-27.477v37.123l-0.014 0.27 31.934 31.932 85.277 111.521c10.307 13.478 23.943 20.229 40.908 20.254l181.748 0.268c17.042 0.022 30.732-6.733 41.070-20.266l84.324-110.342 33.475-27.609-0.461-43.146h-27.363c10.428-8.068 15.020-18.64 13.775-31.715h45.010v68.838c0 8.592 4.296 12.889 12.889 12.889h35.211c8.594 0 12.891-4.296 12.891-12.889v-68.838h20.555zM358.402 373.39c3.888 4.302 9.788 11.013 17.7 20.133s14.822 17.068 20.73 23.843h-43.080c1.178-11.018 2.143-20.096 2.895-27.232s1.337-12.718 1.756-16.745zM665.708 373.39c0.636 5.862 1.263 11.747 1.879 17.654s1.541 14.682 2.773 26.322h-43.080c6.928-7.216 13.514-14.999 19.76-23.35s12.468-15.226 18.667-20.626zM675.522 466.16c1.743 16.505 7.694 27.836 17.854 33.992l-16.258 13.408c-2.212 1.826-4.189 3.879-5.932 6.158l-52.221 68.354v-42.525c-7.071 23.209-20.453 42.231-40.143 57.065s-41.983 22.251-66.876 22.251c-25.551 0-48.323-7.784-68.316-23.352s-33.229-35.4-39.709-59.496v44.59l-51.098-66.887c-1.053-1.391-3.384-3.877-6.992-7.457l-13.271-13.27c9.033-6.243 14.378-17.187 16.033-32.832h61.807c20.077-43.348 53.925-65.021 101.545-65.021s81.468 21.674 101.547 65.021h62.031z" />
<glyph unicode="&#xf104;" glyph-name="angle-left" horiz-adv-x="384" d="M358.286 566.857c0-4.571-2.286-9.714-5.714-13.143l-224.571-224.571 224.571-224.571c3.429-3.429 5.714-8.571 5.714-13.143s-2.286-9.714-5.714-13.143l-28.571-28.571c-3.429-3.429-8.571-5.714-13.143-5.714s-9.714 2.286-13.143 5.714l-266.286 266.286c-3.429 3.429-5.714 8.571-5.714 13.143s2.286 9.714 5.714 13.143l266.286 266.286c3.429 3.429 8.571 5.714 13.143 5.714s9.714-2.286 13.143-5.714l28.571-28.571c3.429-3.429 5.714-8 5.714-13.143z" />
<glyph unicode="&#xf105;" glyph-name="angle-right" horiz-adv-x="347" d="M340 329.143c0-4.571-2.286-9.714-5.714-13.143l-266.286-266.286c-3.429-3.429-8.571-5.714-13.143-5.714s-9.714 2.286-13.143 5.714l-28.571 28.571c-3.429 3.429-5.714 8-5.714 13.143 0 4.571 2.286 9.714 5.714 13.143l224.571 224.571-224.571 224.571c-3.429 3.429-5.714 8.571-5.714 13.143s2.286 9.714 5.714 13.143l28.571 28.571c3.429 3.429 8.571 5.714 13.143 5.714s9.714-2.286 13.143-5.714l266.286-266.286c3.429-3.429 5.714-8.571 5.714-13.143z" />
<glyph unicode="&#xf106;" glyph-name="uniF105" d="M489.462 87.613c9.975 0 20.293 2.018 30.043 6.363l-13.301-92.637c-2.773-19.318-16.326-35.359-34.91-41.32l-266.794-85.57c-26.807-8.6-55.541 6.154-64.148 32.992-8.602 26.824 6.166 55.545 32.992 64.148l236.418 75.83 12.184 84.873c11.383-26.779 37.787-44.68 67.518-44.68zM875.508 272.276c9.654-12.541 12.943-28.854 8.893-44.158l-84.141-318.136c-7.201-27.238-35.131-43.471-62.352-36.27-27.234 7.201-43.471 35.117-36.27 62.352l67.201 254.094h-33.861c-8.154 41.609-50.328 68.514-92.594 56.275l-22.582 176.977 3.725 125.4-37.217-138.047 27.424-214.912 15.596 1.344c4.15 6.57 10.174 11.869 17.412 15.1l-0.002 0.018c25.189 11.291 53.551-6.064 55.863-32.912 1.887-21.891-14.33-41.178-36.232-43.064h-0.020c-12.432-1.066-24.471 3.688-32.896 13l-16.375-1.41c-3.943-16.514-17.689-29.674-35.529-31.953-19.064-2.43-36.746 8.303-43.951 25.107l-14.467-1.248c-3.984-6.307-9.691-11.434-16.543-14.697 0.006-0.008 0.010-0.018 0.014-0.025-5.469-2.609-11.465-3.865-17.139-3.865-0.107 0-0.209 0.016-0.316 0.016-21.557 0.17-39.775 17.947-39.434 40.438 0.35 22.867 20.117 41.158 43.553 38.939v-0.004c10.098-0.947 19.199-5.711 25.742-12.941l10.898 0.938-28.039 219.734c-0.693 5.438-0.316 10.963 1.109 16.26l39.383 146.072-73.008-137.008c-5.521-10.342-3.504-18.186-2.031-29.736l21.629-169.502c-22.67-0.182-42.836-10.604-56.201-26.92 5.072 35.336 0.471-18.57 30.092 389.202 2.434 33.512 31.572 58.703 65.086 56.27l137.822-10.010c33.51-2.436 58.705-31.574 56.271-65.086l-20.758-285.736h133.828c15.828 0 30.76-7.35 40.416-19.891zM543.562 794.326c0 67.783 33.891 101.674 101.674 101.674s101.674-33.891 101.674-101.674-33.891-101.674-101.674-101.674-101.674 33.891-101.674 101.674z" />
<glyph unicode="&#xf107;" glyph-name="uniF104" d="M901.48 313.138c67.668 0 122.52-54.848 122.52-122.516s-54.855-122.523-122.521-122.523c-52.717 0-97.648 33.297-114.934 80.002l30.219-13.781c43.104-19.666 93.662-0.303 113.061 42.236 19.525 42.816 0.58 93.533-42.236 113.061l-32.010 14.598c14.18 5.738 29.664 8.924 45.902 8.924zM730.248 605.25c0 63.104 31.552 94.656 94.656 94.656s94.656-31.552 94.656-94.656-31.552-94.656-94.656-94.656c-63.104 0-94.656 31.552-94.656 94.656zM870.244 251.584c23.26-10.607 32.693-39.119 19.436-61.695-11.342-19.309-35.418-26.729-55.568-17.541l-158.277 72.186c-13.246 6.041-22.611 18.295-24.932 32.74l-28.887 180.572-7.375-102.264-231.084-82.947 33.826-145.961c6.889-29.727-15.697-58.176-46.211-58.209l-323.681-0.369c-26.205-0.004-47.459 21.225-47.49 47.436-0.029 26.229 21.211 47.516 47.439 47.541l263.944 0.299-52.156 225.068c-5.252 22.67 6.701 45.275 27.303 54.23l-0.035 0.096c16.986 6.1 339.358 121.812 361.11 129.619 25.15 9.029 52.857-4.043 61.887-29.193l32.482-90.496c5.34-14.877 2.9-30.623-5.148-42.893l-29.777 67.799 26.16-163.521c14.523-6.623 122.539-55.883 137.037-62.496z" />
<glyph unicode="&#xf108;" glyph-name="angle-left1" horiz-adv-x="384" d="M358.286 576c0-4.571-2.286-9.714-5.714-13.143l-224.571-224.571 224.571-224.571c3.429-3.429 5.714-8.571 5.714-13.143s-2.286-9.714-5.714-13.143l-28.571-28.571c-3.429-3.429-8.571-5.714-13.143-5.714s-9.714 2.286-13.143 5.714l-266.286 266.286c-3.429 3.429-5.714 8.571-5.714 13.143s2.286 9.714 5.714 13.143l266.286 266.286c3.429 3.429 8.571 5.714 13.143 5.714s9.714-2.286 13.143-5.714l28.571-28.571c3.429-3.429 5.714-8 5.714-13.143z" />
<glyph unicode="&#xf109;" glyph-name="angle-right1" horiz-adv-x="347" d="M340 338.286c0-4.571-2.286-9.714-5.714-13.143l-266.286-266.286c-3.429-3.429-8.571-5.714-13.143-5.714s-9.714 2.286-13.143 5.714l-28.571 28.571c-3.429 3.429-5.714 8-5.714 13.143 0 4.571 2.286 9.714 5.714 13.143l224.571 224.571-224.571 224.571c-3.429 3.429-5.714 8.571-5.714 13.143s2.286 9.714 5.714 13.143l28.571 28.571c3.429 3.429 8.571 5.714 13.143 5.714s9.714-2.286 13.143-5.714l266.286-266.286c3.429-3.429 5.714-8.571 5.714-13.143z" />
<glyph unicode="&#xf10a;" glyph-name="angle-down" horiz-adv-x="658" d="M614.286 457.143c0-4.571-2.286-9.714-5.714-13.143l-266.286-266.286c-3.429-3.429-8.571-5.714-13.143-5.714s-9.714 2.286-13.143 5.714l-266.286 266.286c-3.429 3.429-5.714 8.571-5.714 13.143s2.286 9.714 5.714 13.143l28.571 28.571c3.429 3.429 8 5.714 13.143 5.714 4.571 0 9.714-2.286 13.143-5.714l224.571-224.571 224.571 224.571c3.429 3.429 8.571 5.714 13.143 5.714s9.714-2.286 13.143-5.714l28.571-28.571c3.429-3.429 5.714-8.571 5.714-13.143z" />
<glyph unicode="&#xf10b;" glyph-name="mobile, mobile-phone" horiz-adv-x="439" d="M265.143 73.143c0 25.143-20.571 45.714-45.714 45.714s-45.714-20.571-45.714-45.714 20.571-45.714 45.714-45.714 45.714 20.571 45.714 45.714zM384 164.571v402.286c0 9.714-8.571 18.286-18.286 18.286h-292.571c-9.714 0-18.286-8.571-18.286-18.286v-402.286c0-9.714 8.571-18.286 18.286-18.286h292.571c9.714 0 18.286 8.571 18.286 18.286zM274.286 649.143c0 5.143-4 9.143-9.143 9.143h-91.429c-5.143 0-9.143-4-9.143-9.143s4-9.143 9.143-9.143h91.429c5.143 0 9.143 4 9.143 9.143zM438.857 658.285v-585.143c0-40-33.143-73.143-73.143-73.143h-292.571c-40 0-73.143 33.143-73.143 73.143v585.143c0 40 33.143 73.143 73.143 73.143h292.571c40 0 73.143-33.143 73.143-73.143z" />
<glyph unicode="&#xf10e;" glyph-name="quote-right" horiz-adv-x="951" d="M438.857 694.857v-402.286c0-161.143-131.429-292.571-292.571-292.571h-36.571c-20 0-36.571 16.571-36.571 36.571v73.143c0 20 16.571 36.571 36.571 36.571h36.571c80.571 0 146.286 65.714 146.286 146.286v18.286c0 30.286-24.571 54.857-54.857 54.857h-128c-60.571 0-109.714 49.143-109.714 109.714v219.429c0 60.571 49.143 109.714 109.714 109.714h219.429c60.571 0 109.714-49.143 109.714-109.714zM950.857 694.857v-402.286c0-161.143-131.429-292.571-292.571-292.571h-36.571c-20 0-36.571 16.571-36.571 36.571v73.143c0 20 16.571 36.571 36.571 36.571h36.571c80.571 0 146.286 65.714 146.286 146.286v18.286c0 30.286-24.571 54.857-54.857 54.857h-128c-60.571 0-109.714 49.143-109.714 109.714v219.429c0 60.571 49.143 109.714 109.714 109.714h219.429c60.571 0 109.714-49.143 109.714-109.714z" />
<glyph unicode="&#xf135;" glyph-name="rocket1" horiz-adv-x="967" d="M822.857 630.857c0 30.286-24.571 54.857-54.857 54.857s-54.857-24.571-54.857-54.857 24.571-54.857 54.857-54.857 54.857 24.571 54.857 54.857zM950.857 795.428c0-189.714-52.571-316-188-452-33.143-32.571-70.857-66.286-111.429-100.571l-11.429-216.571c-0.571-5.714-4-11.429-9.143-14.857l-219.429-128c-2.857-1.714-5.714-2.286-9.143-2.286-4.571 0-9.143 1.714-13.143 5.143l-36.571 36.571c-4.571 5.143-6.286 12-4.571 18.286l48.571 157.714-160.571 160.571-157.714-48.571c-1.714-0.571-3.429-0.571-5.143-0.571-4.571 0-9.714 1.714-13.143 5.143l-36.571 36.571c-5.714 6.286-6.857 15.429-2.857 22.286l128 219.429c3.429 5.143 9.143 8.571 14.857 9.143l216.571 11.429c34.286 40.571 68 78.286 100.571 111.429 142.857 142.286 252 188 450.857 188 10.286 0 19.429-8 19.429-18.286z" />
<glyph unicode="&#xf136;" glyph-name="rocket" horiz-adv-x="967" d="M822.857 621.714c0 30.286-24.571 54.857-54.857 54.857s-54.857-24.571-54.857-54.857 24.571-54.857 54.857-54.857 54.857 24.571 54.857 54.857zM950.857 786.285c0-189.714-52.571-316-188-452-33.143-32.571-70.857-66.286-111.429-100.571l-11.429-216.571c-0.571-5.714-4-11.429-9.143-14.857l-219.429-128c-2.857-1.714-5.714-2.286-9.143-2.286-4.571 0-9.143 1.714-13.143 5.143l-36.571 36.571c-4.571 5.143-6.286 12-4.571 18.286l48.571 157.714-160.571 160.571-157.714-48.571c-1.714-0.571-3.429-0.571-5.143-0.571-4.571 0-9.714 1.714-13.143 5.143l-36.571 36.571c-5.714 6.286-6.857 15.429-2.857 22.286l128 219.429c3.429 5.143 9.143 8.571 14.857 9.143l216.571 11.429c34.286 40.571 68 78.286 100.571 111.429 142.857 142.286 252 188 450.857 188 10.286 0 19.429-8 19.429-18.286z" />
<glyph unicode="&#xf156;" glyph-name="dollar, usd" horiz-adv-x="583" d="M558.857 200.571c0-116.571-83.429-208.571-204.571-228.571v-100c0-10.286-8-18.286-18.286-18.286h-77.143c-9.714 0-18.286 8-18.286 18.286v100c-133.714 18.857-206.857 98.857-209.714 102.286-5.714 6.857-6.286 16.571-1.143 23.429l58.857 77.143c2.857 4 8 6.286 13.143 6.857s10.286-1.143 13.714-5.143c1.143-0.571 81.143-77.143 182.286-77.143 56 0 116.571 29.714 116.571 94.286 0 54.857-67.429 81.714-144.571 112.571-102.857 40.571-230.857 92-230.857 235.429 0 105.143 82.286 192 201.714 214.857v102.857c0 10.286 8.571 18.286 18.286 18.286h77.143c10.286 0 18.286-8 18.286-18.286v-100.571c116-13.143 177.714-76 180-78.286 5.714-6.286 6.857-14.857 2.857-21.714l-46.286-83.429c-2.857-5.143-7.429-8.571-13.143-9.143-5.714-1.143-10.857 0.571-15.429 4-0.571 0.571-69.714 61.714-155.429 61.714-72.571 0-122.857-36-122.857-88 0-60.571 69.714-87.429 150.857-118.857 105.143-40.571 224-86.857 224-224.571z" />
<glyph unicode="&#xf16d;" glyph-name="instagram" horiz-adv-x="878" d="M585.143 365.714c0 80.571-65.714 146.286-146.286 146.286s-146.286-65.714-146.286-146.286 65.714-146.286 146.286-146.286 146.286 65.714 146.286 146.286zM664 365.714c0-124.571-100.571-225.143-225.143-225.143s-225.143 100.571-225.143 225.143 100.571 225.143 225.143 225.143 225.143-100.571 225.143-225.143zM725.714 600c0-29.143-23.429-52.571-52.571-52.571s-52.571 23.429-52.571 52.571 23.429 52.571 52.571 52.571 52.571-23.429 52.571-52.571zM438.857 725.714c-64 0-201.143 5.143-258.857-17.714-20-8-34.857-17.714-50.286-33.143s-25.143-30.286-33.143-50.286c-22.857-57.714-17.714-194.857-17.714-258.857s-5.143-201.143 17.714-258.857c8-20 17.714-34.857 33.143-50.286s30.286-25.143 50.286-33.143c57.714-22.857 194.857-17.714 258.857-17.714s201.143-5.143 258.857 17.714c20 8 34.857 17.714 50.286 33.143s25.143 30.286 33.143 50.286c22.857 57.714 17.714 194.857 17.714 258.857s5.143 201.143-17.714 258.857c-8 20-17.714 34.857-33.143 50.286s-30.286 25.143-50.286 33.143c-57.714 22.857-194.857 17.714-258.857 17.714zM877.714 365.714c0-60.571 0.571-120.571-2.857-181.143-3.429-70.286-19.429-132.571-70.857-184s-113.714-67.429-184-70.857c-60.571-3.429-120.571-2.857-181.143-2.857s-120.571-0.571-181.143 2.857c-70.286 3.429-132.571 19.429-184 70.857s-67.429 113.714-70.857 184c-3.429 60.571-2.857 120.571-2.857 181.143s-0.571 120.571 2.857 181.143c3.429 70.286 19.429 132.571 70.857 184s113.714 67.429 184 70.857c60.571 3.429 120.571 2.857 181.143 2.857s120.571 0.571 181.143-2.857c70.286-3.429 132.571-19.429 184-70.857s67.429-113.714 70.857-184c3.429-60.571 2.857-120.571 2.857-181.143z" />
<glyph unicode="&#xf189;" glyph-name="vk" horiz-adv-x="1119" d="M1095.429 580.571c8.571-23.429-18.286-78.286-85.714-168-110.857-147.429-122.857-133.714-31.429-218.857 88-81.714 106.286-121.143 109.143-126.286 0 0 36.571-64-40.571-64.571l-146.286-2.286c-31.429-6.286-73.143 22.286-73.143 22.286-54.857 37.714-106.286 135.429-146.286 122.857 0 0-41.143-13.143-40-101.143 0.571-18.857-8.571-29.143-8.571-29.143s-10.286-10.857-30.286-12.571h-65.714c-144.571-9.143-272 124-272 124s-139.429 144-261.714 431.429c-8 18.857 0.571 28 0.571 28s8.571 10.857 32.571 10.857l156.571 1.143c14.857-2.286 25.143-10.286 25.143-10.286s9.143-6.286 13.714-18.286c25.714-64 58.857-122.286 58.857-122.286 57.143-117.714 96-137.714 118.286-125.714 0 0 29.143 17.714 22.857 160-2.286 51.429-16.571 74.857-16.571 74.857-13.143 17.714-37.714 22.857-48.571 24.571-8.571 1.143 5.714 21.714 24.571 30.857 28 13.714 77.714 14.286 136.571 13.714 46.286-0.571 59.429-3.429 77.143-7.429 54.286-13.143 36-63.429 36-184.571 0-38.857-7.429-93.143 20.571-110.857 12-8 41.714-1.143 114.857 123.429 0 0 34.286 59.429 61.143 128.571 4.571 12.571 14.286 17.714 14.286 17.714s9.143 5.143 21.714 3.429l164.571 1.143c49.714 6.286 57.714-16.571 57.714-16.571z" />
<glyph unicode="&#xf19d;" glyph-name="graduation-cap" horiz-adv-x="1317" d="M1013.714 409.143l10.286-180.571c4.571-80.571-164-146.286-365.714-146.286s-370.286 65.714-365.714 146.286l10.286 180.571 328-103.429c9.143-2.857 18.286-4 27.429-4s18.286 1.143 27.429 4zM1316.571 594.286c0-8-5.143-14.857-12.571-17.714l-640-201.143c-2.286-0.571-4-0.571-5.714-0.571s-3.429 0-5.714 0.571l-372.571 117.714c-32.571-25.714-55.429-88.571-60-165.714 21.714-12.571 36-35.429 36-62.286 0-25.714-13.143-48-33.143-61.143l33.143-247.429c0.571-5.143-1.143-10.286-4.571-14.286s-8.571-6.286-13.714-6.286h-109.714c-5.143 0-10.286 2.286-13.714 6.286s-5.143 9.143-4.571 14.286l33.143 247.429c-20 13.143-33.143 35.429-33.143 61.143 0 27.429 15.429 50.857 37.143 63.429 3.429 66.857 20.571 138.857 56 188.571l-190.286 59.429c-7.429 2.857-12.571 9.714-12.571 17.714s5.143 14.857 12.571 17.714l640 201.143c2.286 0.571 4 0.571 5.714 0.571s3.429 0 5.714-0.571l640-201.143c7.429-2.857 12.571-9.714 12.571-17.714z" />
<glyph unicode="&#xf1d8;" glyph-name="paper-plane" horiz-adv-x="1025" d="M1008 880.571c12-8.571 17.714-22.286 15.429-36.571l-146.286-877.714c-1.714-10.857-8.571-20-18.286-25.714-5.143-2.857-11.429-4.571-17.714-4.571-4.571 0-9.143 1.143-13.714 2.857l-258.857 105.714-138.286-168.571c-6.857-8.571-17.143-13.143-28-13.143-4 0-8.571 0.571-12.571 2.286-14.286 5.143-24 18.857-24 34.286v199.429l493.714 605.143-610.857-528.571-225.714 92.571c-13.143 5.143-21.714 17.143-22.857 31.429-0.571 13.714 6.286 26.857 18.286 33.714l950.857 548.571c5.714 3.429 12 5.143 18.286 5.143 7.429 0 14.857-2.286 20.571-6.286z" />
<glyph unicode="&#xf1d9;" glyph-name="paper-plane-o1" horiz-adv-x="1025" d="M1008 880.571c12-8.571 17.714-22.286 15.429-36.571l-146.286-877.714c-1.714-10.857-8.571-20-18.286-25.714-5.143-2.857-11.429-4.571-17.714-4.571-4.571 0-9.143 1.143-13.714 2.857l-301.143 122.857-170.286-186.857c-6.857-8-16.571-12-26.857-12-4.571 0-9.143 0.571-13.143 2.286-14.286 5.714-23.429 19.429-23.429 34.286v258.286l-269.714 110.286c-13.143 5.143-21.714 17.143-22.857 31.429-1.143 13.714 6.286 26.857 18.286 33.714l950.857 548.571c12 7.429 27.429 6.857 38.857-1.143zM812.571 24l126.286 756-819.429-472.571 192-78.286 493.143 365.143-273.143-455.429z" />
<glyph unicode="&#xf1da;" glyph-name="paper-plane-o, send-o" horiz-adv-x="1025" d="M1008 871.428c12-8.571 17.714-22.286 15.429-36.571l-146.286-877.714c-1.714-10.857-8.571-20-18.286-25.714-5.143-2.857-11.429-4.571-17.714-4.571-4.571 0-9.143 1.143-13.714 2.857l-301.143 122.857-170.286-186.857c-6.857-8-16.571-12-26.857-12-4.571 0-9.143 0.571-13.143 2.286-14.286 5.714-23.429 19.429-23.429 34.286v258.286l-269.714 110.286c-13.143 5.143-21.714 17.143-22.857 31.429-1.143 13.714 6.286 26.857 18.286 33.714l950.857 548.571c12 7.429 27.429 6.857 38.857-1.143zM812.571 14.857l126.286 756-819.429-472.571 192-78.286 493.143 365.143-273.143-455.429z" />
<glyph unicode="&#xf232;" glyph-name="whatsapp" horiz-adv-x="878" d="M562.857 330.286c9.714 0 102.857-48.571 106.857-55.429 1.143-2.857 1.143-6.286 1.143-8.571 0-14.286-4.571-30.286-9.714-43.429-13.143-32-66.286-52.571-98.857-52.571-27.429 0-84 24-108.571 35.429-81.714 37.143-132.571 100.571-181.714 173.143-21.714 32-41.143 71.429-40.571 110.857v4.571c1.143 37.714 14.857 64.571 42.286 90.286 8.571 8 17.714 12.571 29.714 12.571 6.857 0 13.714-1.714 21.143-1.714 15.429 0 18.286-4.571 24-19.429 4-9.714 33.143-87.429 33.143-93.143 0-21.714-39.429-46.286-39.429-59.429 0-2.857 1.143-5.714 2.857-8.571 12.571-26.857 36.571-57.714 58.286-78.286 26.286-25.143 54.286-41.714 86.286-57.714 4-2.286 8-4 12.571-4 17.143 0 45.714 55.429 60.571 55.429zM446.857 27.428c197.714 0 358.857 161.143 358.857 358.857s-161.143 358.857-358.857 358.857-358.857-161.143-358.857-358.857c0-75.429 24-149.143 68.571-210.286l-45.143-133.143 138.286 44c58.286-38.286 127.429-59.429 197.143-59.429zM446.857 817.143c237.714 0 430.857-193.143 430.857-430.857s-193.143-430.857-430.857-430.857c-72.571 0-144.571 18.286-208.571 53.714l-238.286-76.571 77.714 231.429c-40.571 66.857-61.714 144-61.714 222.286 0 237.714 193.143 430.857 430.857 430.857z" />
<glyph unicode="&#xf274;" glyph-name="calendar-check-o" horiz-adv-x="951" d="M744.571 326.857l-292.571-292.571c-7.429-6.857-18.857-6.857-26.286 0l-164.571 164.571c-6.857 7.429-6.857 18.857 0 25.714l26.286 26.286c6.857 6.857 18.286 6.857 25.714 0l125.714-125.714 253.714 253.714c7.429 6.857 18.857 6.857 25.714 0l26.286-26.286c6.857-6.857 6.857-18.286 0-25.714zM73.143-73.143h804.571v585.143h-804.571v-585.143zM292.571 621.714v164.571c0 10.286-8 18.286-18.286 18.286h-36.571c-10.286 0-18.286-8-18.286-18.286v-164.571c0-10.286 8-18.286 18.286-18.286h36.571c10.286 0 18.286 8 18.286 18.286zM731.429 621.714v164.571c0 10.286-8 18.286-18.286 18.286h-36.571c-10.286 0-18.286-8-18.286-18.286v-164.571c0-10.286 8-18.286 18.286-18.286h36.571c10.286 0 18.286 8 18.286 18.286zM950.857 658.285v-731.429c0-40-33.143-73.143-73.143-73.143h-804.571c-40 0-73.143 33.143-73.143 73.143v731.429c0 40 33.143 73.143 73.143 73.143h73.143v54.857c0 50.286 41.143 91.429 91.429 91.429h36.571c50.286 0 91.429-41.143 91.429-91.429v-54.857h219.429v54.857c0 50.286 41.143 91.429 91.429 91.429h36.571c50.286 0 91.429-41.143 91.429-91.429v-54.857h73.143c40 0 73.143-33.143 73.143-73.143z" />
</font>
</defs>
</svg>
